<svg width="24" height="24" viewBox="0 0 24 24" fill="none" xmlns="http://www.w3.org/2000/svg">
<path fill-rule="evenodd" clip-rule="evenodd" d="M13.0811 14.6082C12.6966 14.6082 12.4126 14.5118 12.2135 14.3135C12.0445 14.148 11.9459 13.9151 11.9185 13.622C11.902 13.4637 11.7504 13.3401 11.5714 13.3401H10.3504C10.2535 13.3401 10.164 13.3746 10.0965 13.4364C10.0298 13.4991 9.99508 13.5834 10.0006 13.6693C10.0462 14.2902 10.2746 14.8042 10.681 15.1969C11.1002 15.6009 11.6819 15.8563 12.4117 15.9551C12.4701 15.9631 12.513 16.0105 12.513 16.0651V16.6924C12.513 16.8619 12.6701 17 12.8628 17H13.3186C13.5113 17 13.6674 16.8619 13.6674 16.6924V16.0603C13.6674 16.0049 13.7149 15.9583 13.7807 15.9495C14.431 15.8619 14.9579 15.6435 15.3452 15.3005C15.7799 14.9198 16 14.4187 16 13.8091C16 13.4854 15.9425 13.1963 15.8274 12.9505C15.7132 12.7024 15.5452 12.4807 15.3296 12.2895C15.1159 12.1 14.8502 11.9281 14.5433 11.7779C14.2373 11.6302 13.8455 11.4711 13.3779 11.3065C12.9277 11.1467 12.619 10.9916 12.4582 10.8447C12.3057 10.7049 12.2308 10.521 12.2308 10.2833C12.2308 10.0295 12.3094 9.82949 12.4637 9.68894C12.619 9.54759 12.8363 9.47932 13.1286 9.47932C13.4218 9.47932 13.6474 9.56847 13.82 9.75078C13.9661 9.90418 14.051 10.1315 14.0766 10.4254C14.0894 10.5853 14.2419 10.7105 14.4237 10.7105H15.6438C15.7406 10.7105 15.831 10.6768 15.8968 10.615C15.9635 10.5531 15.9982 10.4688 15.9927 10.3837C15.9516 9.79656 15.7488 9.30263 15.389 8.91551C15.02 8.51715 14.5141 8.25853 13.8875 8.1485C13.8309 8.13886 13.7898 8.09308 13.7898 8.04088V7.30761C13.7898 7.13814 13.6337 7 13.4419 7H12.9806C12.7879 7 12.6309 7.13814 12.6309 7.30761V8.01839C12.6309 8.07301 12.5834 8.11879 12.5185 8.12762C11.8929 8.21436 11.376 8.43442 10.9814 8.78138C10.5394 9.1693 10.3156 9.67288 10.3156 10.2785C10.3156 10.627 10.3805 10.9338 10.5102 11.1892C10.638 11.4438 10.8198 11.6687 11.0509 11.8582C11.2792 12.0438 11.555 12.21 11.871 12.3522C12.1833 12.4927 12.5578 12.6357 12.9843 12.777C13.3935 12.912 13.6821 13.059 13.8474 13.214C14.0072 13.3633 14.0848 13.5617 14.0848 13.8195C14.0848 14.0645 13.999 14.2524 13.8218 14.3946C13.6446 14.5367 13.3962 14.6082 13.0811 14.6082" fill="#E91E63"/>
<path fill-rule="evenodd" clip-rule="evenodd" d="M13 3C8.03 3 4 7.03 4 12H1L4.89 15.89L4.96 16.03L9 12H6C6 8.13 9.13 5 13 5C16.87 5 20 8.13 20 12C20 15.87 16.87 19 13 19C11.07 19 9.32 18.21 8.06 16.94L6.64 18.36C8.27 19.99 10.51 21 13 21C17.97 21 22 16.97 22 12C22 7.03 17.97 3 13 3V3Z" fill="#E91E63"/>
<mask id="mask0_3166_64480" style="mask-type:alpha" maskUnits="userSpaceOnUse" x="1" y="3" width="21" height="18">
<path fill-rule="evenodd" clip-rule="evenodd" d="M13 3C8.03 3 4 7.03 4 12H1L4.89 15.89L4.96 16.03L9 12H6C6 8.13 9.13 5 13 5C16.87 5 20 8.13 20 12C20 15.87 16.87 19 13 19C11.07 19 9.32 18.21 8.06 16.94L6.64 18.36C8.27 19.99 10.51 21 13 21C17.97 21 22 16.97 22 12C22 7.03 17.97 3 13 3V3Z" fill="white"/>
</mask>
<g mask="url(#mask0_3166_64480)">
</g>
</svg>
